<?xml version="1.0" encoding="UTF-8" standalone="no"?>
<!DOCTYPE svg PUBLIC "-//W3C//DTD SVG 1.1//EN"
 "http://www.w3.org/Graphics/SVG/1.1/DTD/svg11.dtd">
<!-- Generated by graphviz version 14.1.5 (20260411.2331)
 -->
<!-- Title: acs Pages: 1 -->
<svg width="770pt" height="61pt"
 viewBox="0.00 0.00 770.00 61.00" xmlns="http://www.w3.org/2000/svg" xmlns:xlink="http://www.w3.org/1999/xlink">
<g id="graph0" class="graph" transform="scale(1 1) rotate(0) translate(4 57)">
<title>acs</title>
<polygon fill="white" stroke="none" points="-4,4 -4,-57 765.5,-57 765.5,4 -4,4"/>
<!-- src -->
<g id="node1" class="node">
<title>src</title>
<path fill="#e5e7eb" stroke="#1b2a4a" d="M154.75,-53C154.75,-53 12,-53 12,-53 6,-53 0,-47 0,-41 0,-41 0,-12 0,-12 0,-6 6,0 12,0 12,0 154.75,0 154.75,0 160.75,0 166.75,-6 166.75,-12 166.75,-12 166.75,-41 166.75,-41 166.75,-47 160.75,-53 154.75,-53"/>
<text xml:space="preserve" text-anchor="middle" x="83.38" y="-35.7" font-family="Libre Franklin" font-size="14.00" fill="#1b2a4a">Block groups</text>
<text xml:space="preserve" text-anchor="middle" x="83.38" y="-20.7" font-family="Libre Franklin" font-size="14.00" fill="#1b2a4a">agg_income, households</text>
<text xml:space="preserve" text-anchor="middle" x="83.38" y="-5.7" font-family="Libre Franklin" font-size="14.00" fill="#1b2a4a">(extensive counts)</text>
</g>
<!-- w -->
<g id="node2" class="node">
<title>w</title>
<path fill="#5698b9" stroke="#1b2a4a" d="M293.75,-45.5C293.75,-45.5 214.75,-45.5 214.75,-45.5 208.75,-45.5 202.75,-39.5 202.75,-33.5 202.75,-33.5 202.75,-19.5 202.75,-19.5 202.75,-13.5 208.75,-7.5 214.75,-7.5 214.75,-7.5 293.75,-7.5 293.75,-7.5 299.75,-7.5 305.75,-13.5 305.75,-19.5 305.75,-19.5 305.75,-33.5 305.75,-33.5 305.75,-39.5 299.75,-45.5 293.75,-45.5"/>
<text xml:space="preserve" text-anchor="middle" x="254.25" y="-28.2" font-family="Libre Franklin" font-size="14.00" fill="white">Area&#45;weighted</text>
<text xml:space="preserve" text-anchor="middle" x="254.25" y="-13.2" font-family="Libre Franklin" font-size="14.00" fill="white">redistribution</text>
</g>
<!-- src&#45;&gt;w -->
<g id="edge1" class="edge">
<title>src&#45;&gt;w</title>
<path fill="none" stroke="#6b7280" d="M166.83,-26.5C175.05,-26.5 183.28,-26.5 191.24,-26.5"/>
<polygon fill="#6b7280" stroke="#6b7280" points="191.13,-30 201.13,-26.5 191.13,-23 191.13,-30"/>
</g>
<!-- out -->
<g id="node3" class="node">
<title>out</title>
<path fill="#e5e7eb" stroke="#1b2a4a" d="M496.5,-45.5C496.5,-45.5 353.75,-45.5 353.75,-45.5 347.75,-45.5 341.75,-39.5 341.75,-33.5 341.75,-33.5 341.75,-19.5 341.75,-19.5 341.75,-13.5 347.75,-7.5 353.75,-7.5 353.75,-7.5 496.5,-7.5 496.5,-7.5 502.5,-7.5 508.5,-13.5 508.5,-19.5 508.5,-19.5 508.5,-33.5 508.5,-33.5 508.5,-39.5 502.5,-45.5 496.5,-45.5"/>
<text xml:space="preserve" text-anchor="middle" x="425.12" y="-28.2" font-family="Libre Franklin" font-size="14.00" fill="#1b2a4a">Civic association</text>
<text xml:space="preserve" text-anchor="middle" x="425.12" y="-13.2" font-family="Libre Franklin" font-size="14.00" fill="#1b2a4a">agg_income, households</text>
</g>
<!-- w&#45;&gt;out -->
<g id="edge2" class="edge">
<title>w&#45;&gt;out</title>
<path fill="none" stroke="#6b7280" d="M305.92,-26.5C313.6,-26.5 321.73,-26.5 329.98,-26.5"/>
<polygon fill="#6b7280" stroke="#6b7280" points="329.77,-30 339.77,-26.5 329.77,-23 329.77,-30"/>
</g>
<!-- d -->
<g id="node4" class="node">
<title>d</title>
<path fill="#2a7f7f" stroke="#1b2a4a" d="M749.5,-45.5C749.5,-45.5 556.5,-45.5 556.5,-45.5 550.5,-45.5 544.5,-39.5 544.5,-33.5 544.5,-33.5 544.5,-19.5 544.5,-19.5 544.5,-13.5 550.5,-7.5 556.5,-7.5 556.5,-7.5 749.5,-7.5 749.5,-7.5 755.5,-7.5 761.5,-13.5 761.5,-19.5 761.5,-19.5 761.5,-33.5 761.5,-33.5 761.5,-39.5 755.5,-45.5 749.5,-45.5"/>
<text xml:space="preserve" text-anchor="middle" x="653" y="-28.2" font-family="Libre Franklin" font-size="14.00" fill="white">Derive</text>
<text xml:space="preserve" text-anchor="middle" x="653" y="-13.2" font-family="Libre Franklin" font-size="14.00" fill="white">mean income = agg / households</text>
</g>
<!-- out&#45;&gt;d -->
<g id="edge3" class="edge">
<title>out&#45;&gt;d</title>
<path fill="none" stroke="#6b7280" d="M508.95,-26.5C516.74,-26.5 524.73,-26.5 532.77,-26.5"/>
<polygon fill="#6b7280" stroke="#6b7280" points="532.63,-30 542.63,-26.5 532.63,-23 532.63,-30"/>
</g>
</g>
</svg>
