<?xml version="1.0" encoding="UTF-8" standalone="no"?>
<!DOCTYPE svg PUBLIC "-//W3C//DTD SVG 1.1//EN"
 "http://www.w3.org/Graphics/SVG/1.1/DTD/svg11.dtd">
<!-- Generated by graphviz version 14.1.5 (20260411.2331)
 -->
<!-- Title: dataflow Pages: 1 -->
<svg width="707pt" height="102pt"
 viewBox="0.00 0.00 707.00 102.00" xmlns="http://www.w3.org/2000/svg" xmlns:xlink="http://www.w3.org/1999/xlink">
<g id="graph0" class="graph" transform="scale(1 1) rotate(0) translate(4 98)">
<title>dataflow</title>
<polygon fill="white" stroke="none" points="-4,4 -4,-98 703.25,-98 703.25,4 -4,4"/>
<!-- ookla -->
<g id="node1" class="node">
<title>ookla</title>
<path fill="#ace4e4" stroke="#1b2a4a" d="M94.75,-94C94.75,-94 29.25,-94 29.25,-94 23.25,-94 17.25,-88 17.25,-82 17.25,-82 17.25,-68 17.25,-68 17.25,-62 23.25,-56 29.25,-56 29.25,-56 94.75,-56 94.75,-56 100.75,-56 106.75,-62 106.75,-68 106.75,-68 106.75,-82 106.75,-82 106.75,-88 100.75,-94 94.75,-94"/>
<text xml:space="preserve" text-anchor="middle" x="62" y="-76.7" font-family="Libre Franklin" font-size="14.00" fill="#1b2a4a">Ookla tiles</text>
<text xml:space="preserve" text-anchor="middle" x="62" y="-61.7" font-family="Libre Franklin" font-size="14.00" fill="#1b2a4a">(610 m grid)</text>
</g>
<!-- redis -->
<g id="node3" class="node">
<title>redis</title>
<path fill="#5698b9" stroke="#1b2a4a" d="M302,-66C302,-66 172,-66 172,-66 166,-66 160,-60 160,-54 160,-54 160,-40 160,-40 160,-34 166,-28 172,-28 172,-28 302,-28 302,-28 308,-28 314,-34 314,-40 314,-40 314,-54 314,-54 314,-60 308,-66 302,-66"/>
<text xml:space="preserve" text-anchor="middle" x="237" y="-48.7" font-family="Libre Franklin" font-size="14.00" fill="white">sdc&#45;redistribute</text>
<text xml:space="preserve" text-anchor="middle" x="237" y="-33.7" font-family="Libre Franklin" font-size="14.00" fill="white">(area&#45;weighted counts)</text>
</g>
<!-- ookla&#45;&gt;redis -->
<g id="edge1" class="edge">
<title>ookla&#45;&gt;redis</title>
<path fill="none" stroke="#6b7280" d="M107.1,-67.86C119.87,-65.8 134.27,-63.47 148.7,-61.13"/>
<polygon fill="#6b7280" stroke="#6b7280" points="148.9,-64.64 158.22,-59.59 147.79,-57.73 148.9,-64.64"/>
</g>
<!-- acs -->
<g id="node2" class="node">
<title>acs</title>
<path fill="#ace4e4" stroke="#1b2a4a" d="M112,-38C112,-38 12,-38 12,-38 6,-38 0,-32 0,-26 0,-26 0,-12 0,-12 0,-6 6,0 12,0 12,0 112,0 112,0 118,0 124,-6 124,-12 124,-12 124,-26 124,-26 124,-32 118,-38 112,-38"/>
<text xml:space="preserve" text-anchor="middle" x="62" y="-20.7" font-family="Libre Franklin" font-size="14.00" fill="#1b2a4a">ACS block groups</text>
<text xml:space="preserve" text-anchor="middle" x="62" y="-5.7" font-family="Libre Franklin" font-size="14.00" fill="#1b2a4a">(counts)</text>
</g>
<!-- acs&#45;&gt;redis -->
<g id="edge2" class="edge">
<title>acs&#45;&gt;redis</title>
<path fill="none" stroke="#6b7280" d="M124.48,-28.95C132.2,-30.2 140.22,-31.5 148.25,-32.8"/>
<polygon fill="#6b7280" stroke="#6b7280" points="147.65,-36.25 158.08,-34.39 148.77,-29.34 147.65,-36.25"/>
</g>
<!-- derive -->
<g id="node4" class="node">
<title>derive</title>
<path fill="#2a7f7f" stroke="#1b2a4a" d="M528,-66C528,-66 362,-66 362,-66 356,-66 350,-60 350,-54 350,-54 350,-40 350,-40 350,-34 356,-28 362,-28 362,-28 528,-28 528,-28 534,-28 540,-34 540,-40 540,-40 540,-54 540,-54 540,-60 534,-66 528,-66"/>
<text xml:space="preserve" text-anchor="middle" x="445" y="-48.7" font-family="Libre Franklin" font-size="14.00" fill="white">Derive intensive rates</text>
<text xml:space="preserve" text-anchor="middle" x="445" y="-33.7" font-family="Libre Franklin" font-size="14.00" fill="white">(mean income, mean speed)</text>
</g>
<!-- redis&#45;&gt;derive -->
<g id="edge3" class="edge">
<title>redis&#45;&gt;derive</title>
<path fill="none" stroke="#6b7280" d="M314.41,-47C322.2,-47 330.2,-47 338.22,-47"/>
<polygon fill="#6b7280" stroke="#6b7280" points="338.04,-50.5 348.04,-47 338.04,-43.5 338.04,-50.5"/>
</g>
<!-- civic -->
<g id="node5" class="node">
<title>civic</title>
<path fill="#3b4994" stroke="#1b2a4a" d="M687.25,-66C687.25,-66 588,-66 588,-66 582,-66 576,-60 576,-54 576,-54 576,-40 576,-40 576,-34 582,-28 588,-28 588,-28 687.25,-28 687.25,-28 693.25,-28 699.25,-34 699.25,-40 699.25,-40 699.25,-54 699.25,-54 699.25,-60 693.25,-66 687.25,-66"/>
<text xml:space="preserve" text-anchor="middle" x="637.62" y="-48.7" font-family="Libre Franklin" font-size="14.00" fill="white">Civic associations</text>
<text xml:space="preserve" text-anchor="middle" x="637.62" y="-33.7" font-family="Libre Franklin" font-size="14.00" fill="white">(policy unit)</text>
</g>
<!-- derive&#45;&gt;civic -->
<g id="edge4" class="edge">
<title>derive&#45;&gt;civic</title>
<path fill="none" stroke="#6b7280" d="M540.47,-47C548.53,-47 556.59,-47 564.42,-47"/>
<polygon fill="#6b7280" stroke="#6b7280" points="564.21,-50.5 574.21,-47 564.21,-43.5 564.21,-50.5"/>
</g>
</g>
</svg>
