<?xml version="1.0" encoding="UTF-8" standalone="no"?>
<!DOCTYPE svg PUBLIC "-//W3C//DTD SVG 1.1//EN"
 "http://www.w3.org/Graphics/SVG/1.1/DTD/svg11.dtd">
<!-- Generated by graphviz version 14.1.5 (20260411.2331)
 -->
<!-- Title: ookla Pages: 1 -->
<svg width="735pt" height="61pt"
 viewBox="0.00 0.00 735.00 61.00" xmlns="http://www.w3.org/2000/svg" xmlns:xlink="http://www.w3.org/1999/xlink">
<g id="graph0" class="graph" transform="scale(1 1) rotate(0) translate(4 57)">
<title>ookla</title>
<polygon fill="white" stroke="none" points="-4,4 -4,-57 731,-57 731,4 -4,4"/>
<!-- src -->
<g id="node1" class="node">
<title>src</title>
<path fill="#e5e7eb" stroke="#1b2a4a" d="M149.5,-53C149.5,-53 12,-53 12,-53 6,-53 0,-47 0,-41 0,-41 0,-12 0,-12 0,-6 6,0 12,0 12,0 149.5,0 149.5,0 155.5,0 161.5,-6 161.5,-12 161.5,-12 161.5,-41 161.5,-41 161.5,-47 155.5,-53 149.5,-53"/>
<text xml:space="preserve" text-anchor="middle" x="80.75" y="-35.7" font-family="Libre Franklin" font-size="14.00" fill="#1b2a4a">Ookla tiles</text>
<text xml:space="preserve" text-anchor="middle" x="80.75" y="-20.7" font-family="Libre Franklin" font-size="14.00" fill="#1b2a4a">tests, avg_d_kbps×tests</text>
<text xml:space="preserve" text-anchor="middle" x="80.75" y="-5.7" font-family="Libre Franklin" font-size="14.00" fill="#1b2a4a">(extensive counts)</text>
</g>
<!-- w -->
<g id="node2" class="node">
<title>w</title>
<path fill="#5698b9" stroke="#1b2a4a" d="M288.5,-45.5C288.5,-45.5 209.5,-45.5 209.5,-45.5 203.5,-45.5 197.5,-39.5 197.5,-33.5 197.5,-33.5 197.5,-19.5 197.5,-19.5 197.5,-13.5 203.5,-7.5 209.5,-7.5 209.5,-7.5 288.5,-7.5 288.5,-7.5 294.5,-7.5 300.5,-13.5 300.5,-19.5 300.5,-19.5 300.5,-33.5 300.5,-33.5 300.5,-39.5 294.5,-45.5 288.5,-45.5"/>
<text xml:space="preserve" text-anchor="middle" x="249" y="-28.2" font-family="Libre Franklin" font-size="14.00" fill="white">Area&#45;weighted</text>
<text xml:space="preserve" text-anchor="middle" x="249" y="-13.2" font-family="Libre Franklin" font-size="14.00" fill="white">redistribution</text>
</g>
<!-- src&#45;&gt;w -->
<g id="edge1" class="edge">
<title>src&#45;&gt;w</title>
<path fill="none" stroke="#6b7280" d="M161.95,-26.5C169.89,-26.5 177.87,-26.5 185.59,-26.5"/>
<polygon fill="#6b7280" stroke="#6b7280" points="185.56,-30 195.56,-26.5 185.56,-23 185.56,-30"/>
</g>
<!-- out -->
<g id="node3" class="node">
<title>out</title>
<path fill="#e5e7eb" stroke="#1b2a4a" d="M450,-45.5C450,-45.5 348.5,-45.5 348.5,-45.5 342.5,-45.5 336.5,-39.5 336.5,-33.5 336.5,-33.5 336.5,-19.5 336.5,-19.5 336.5,-13.5 342.5,-7.5 348.5,-7.5 348.5,-7.5 450,-7.5 450,-7.5 456,-7.5 462,-13.5 462,-19.5 462,-19.5 462,-33.5 462,-33.5 462,-39.5 456,-45.5 450,-45.5"/>
<text xml:space="preserve" text-anchor="middle" x="399.25" y="-28.2" font-family="Libre Franklin" font-size="14.00" fill="#1b2a4a">Civic association</text>
<text xml:space="preserve" text-anchor="middle" x="399.25" y="-13.2" font-family="Libre Franklin" font-size="14.00" fill="#1b2a4a">tests, speed×tests</text>
</g>
<!-- w&#45;&gt;out -->
<g id="edge2" class="edge">
<title>w&#45;&gt;out</title>
<path fill="none" stroke="#6b7280" d="M300.6,-26.5C308.36,-26.5 316.5,-26.5 324.62,-26.5"/>
<polygon fill="#6b7280" stroke="#6b7280" points="324.56,-30 334.56,-26.5 324.56,-23 324.56,-30"/>
</g>
<!-- d -->
<g id="node4" class="node">
<title>d</title>
<path fill="#2a7f7f" stroke="#1b2a4a" d="M715,-45.5C715,-45.5 510,-45.5 510,-45.5 504,-45.5 498,-39.5 498,-33.5 498,-33.5 498,-19.5 498,-19.5 498,-13.5 504,-7.5 510,-7.5 510,-7.5 715,-7.5 715,-7.5 721,-7.5 727,-13.5 727,-19.5 727,-19.5 727,-33.5 727,-33.5 727,-39.5 721,-45.5 715,-45.5"/>
<text xml:space="preserve" text-anchor="middle" x="612.5" y="-28.2" font-family="Libre Franklin" font-size="14.00" fill="white">Derive</text>
<text xml:space="preserve" text-anchor="middle" x="612.5" y="-13.2" font-family="Libre Franklin" font-size="14.00" fill="white">mean speed = (speed×tests) / tests</text>
</g>
<!-- out&#45;&gt;d -->
<g id="edge3" class="edge">
<title>out&#45;&gt;d</title>
<path fill="none" stroke="#6b7280" d="M462.49,-26.5C470.19,-26.5 478.26,-26.5 486.49,-26.5"/>
<polygon fill="#6b7280" stroke="#6b7280" points="486.28,-30 496.28,-26.5 486.28,-23 486.28,-30"/>
</g>
</g>
</svg>
